<svg width="476" height="490" viewBox="0 0 476 490" fill="none" xmlns="http://www.w3.org/2000/svg">
  <path d="M236.881 447.859c120.788 0 218.707-97.918 218.707-218.707S357.669 10.446 236.881 10.446 18.174 108.364 18.174 229.152c0 120.789 97.919 218.707 218.707 218.707" fill="url(#a)"/>
  <path d="m46.644 182.642-1.141-.197c.058-.336 6.071-33.864 29.32-59.575l.858.776c-23.023 25.463-28.98 58.665-29.037 58.996m31.691-81.023-.956-.649c.185-.272 18.794-27.264 48.648-40.433l.469 1.06c-29.54 13.03-47.976 39.755-48.161 40.022m364.484 123.565h-1.159c0-41.58-18.869-79.267-19.061-79.644l1.032-.521c.191.376 19.188 38.301 19.188 80.165m-22.56-21.68c-.893-16.563-6.286-30.503-6.339-30.642l1.078-.423c.052.139 5.51 14.247 6.419 31.002z" fill="#fff"/>
  <path d="m10.295 174.763-1.135-.244c.07-.336 7.387-33.689 33.029-67.396l.92.701c-25.485 33.504-32.744 66.608-32.814 66.939M46.517 81.55l-.887-.742c.07-.08 6.865-8.18 15.533-16.36l.793.84c-8.62 8.134-15.376 16.181-15.44 16.262m28.655-16.303-.88-.753c.098-.116 10.028-11.587 28.979-24.518 17.479-11.93 46.435-27.583 85.142-34.449l.203 1.141c-38.504 6.831-67.31 22.404-84.69 34.264-18.83 12.844-28.66 24.2-28.754 24.315m379.861 89.366c-9.751-39.744-40.688-74.054-41.001-74.395l.857-.783c.313.342 31.448 34.878 41.268 74.899zm8.592 57.86c-1.153-14.455-3.911-27.108-6.02-35.179l1.124-.295c2.12 8.117 4.896 20.839 6.054 35.381zm6.285 54.633-1.129-.261c.996-4.31 1.865-8.986 2.584-13.893l1.147.168a179 179 0 0 1-2.602 13.986m4.745-35.671-1.159-.064c.91-16.685.105-32.774-2.01-40.033l1.112-.325c2.15 7.376 2.973 23.621 2.057 40.422m-18.232 52.785-1.101-.353c2.034-6.327 3.76-15.133 5.133-26.158l1.147.145c-1.379 11.094-3.122 19.964-5.179 26.366m6.222-36.047-1.153-.105c.423-4.588.609-7.636.609-7.67l1.159.069c-.006.029-.192 3.106-.615 7.706M345.325 29.837c-30.364-19.327-81.22-25.967-81.73-26.03l.145-1.148c.128.018 13.007 1.675 29.489 5.713 15.226 3.73 36.726 10.312 52.722 20.491zm-25.33-20.805C311.85 5.44 292.922 1.17 292.731 1.13l.255-1.13c.191.04 19.229 4.334 27.479 7.978zM73.503 396.343a169 169 0 0 1-7.213-6.037l.77-.869a165 165 0 0 0 7.167 5.996zm-19.577-18.192c-33.203-36.21-39.564-75.722-39.628-76.116l1.147-.173c.058.394 6.38 39.57 39.333 75.507zm9.102-2.995c-11.888-9.803-23-32.172-23.11-32.398l1.037-.51c.11.22 11.118 22.369 22.809 32.015zm115.153 74.389c-16.9-3.233-33.597-8.98-49.628-17.085l.522-1.037c15.938 8.053 32.531 13.765 49.326 16.981zm-70.102-29.026c-8.308-5.562-12.96-9.687-13.007-9.727l.77-.863c.047.04 4.647 4.119 12.88 9.629zm139.294 41.198-.058-1.158c4.288-.209 8.482-.533 12.462-.962l.128 1.153c-4.003.434-8.221.759-12.532.967m-15.231.267c-26.523-.29-48.747-4.264-48.973-4.305l.209-1.141c.22.04 22.357 4.003 48.776 4.287z" fill="#000"/>
  <path d="M105.379 385.972c-36.546-25.625-50.01-66.272-50.143-66.678l1.1-.359c.134.406 13.488 40.694 49.709 66.087zm79.905 44.338c-28.684-5.04-57.403-24.24-57.687-24.437l.649-.962c.284.192 28.806 19.258 57.241 24.252zm-47.189-34.825c-7.636-2.392-16.853-10.938-17.241-11.297l.788-.846c.092.087 9.414 8.725 16.795 11.043zM275.333 41.8c-5.823 3.546-31.146 18.366-49.425 32.305a18.1 18.1 0 0 0-6.216 8.737c-2.37 7.236-4.496 15.272-5.099 17.601a2.12 2.12 0 0 0 .209 1.593c1.709 3.013 11.077 13.383 62.118 31.436l11.981-25.915s-7.566-48.22-9.889-64.326c-.238-1.616-2.098-2.392-3.679-1.43" fill="#fff"/>
  <path d="m390.613 331.617-62.831 7.381a30.52 30.52 0 0 0-23.707 16.61l-28.122 56.505a5.84 5.84 0 0 1-6.472 3.082l-9.993-2.202c-7.011-1.546-14.015 2.613-16.014 9.508l-1.564 5.405a6.53 6.53 0 0 0 3.267 7.619l46.135 23.91a6.533 6.533 0 0 0 8.597-2.428l46.366-75.507 64.082-4.038zm-35.561-48.249 4.583-11.494 37.907 2.034-13.771 52.043zm-4.785-27.78s4.165-10.781 4.102-16.639c-.081-7.792.764-23.649-4.201-22.902-3.024.452-3.928 7.787-4.298 10.939-.145 1.245-.626 2.439-1.46 3.377-1.188 1.339-2.874 1.854-3.76-4.212-1.443-9.883-1.13-28.904-6.872-25.422-2.908 1.767-1.349 19.038-2.995 18.273-1.645-.765-1.442-26.847-8.441-24.003-2.312.939-1.79 13.401-1.315 20.371.029.388-.539.469-.626.086-.944-4.211-2.393-10.347-3.551-13.945-1.246-3.875-4.143-1.848-4.143.98 0 6.083 1.031 18.892 1.031 18.892z" fill="rgba(161, 114, 208, 0.5)"/>
  <path d="m447.569 290.194 10.429 17.96-24.333 78.213c-2.283 7.931-11.355 12.879-19.501 11.523l-31.32-3.476c-4.021-.672-5.463 1.39-4.056 5.214l13.517 62.02c2.294 6.24-1.263 13.099-7.688 14.82l-46.604 12.456c-4.513 1.205-9.02-1.947-9.432-6.599l-2.682-16.007c-.11-1.223-.458-6.13 2.317-8.111 4.056-2.897 10.429-6.953 10.429-6.953 2.149-1.153 2.369-4.6 1.738-6.952l-17.705-68.851c-2.891-10.77 3.812-19.118 14.814-20.949 13.904-2.317 37.079-7.532 37.079-7.532l9.924-64.743a11.16 11.16 0 0 1 11.35-8.4l15.225.724z" fill="#a172d0"/>
  <path d="M441.587 273.173c3.166-13.406-5.135-26.839-18.541-30.005-13.405-3.165-26.839 5.136-30.004 18.542-3.166 13.405 5.136 26.838 18.541 30.004 13.406 3.165 26.839-5.136 30.004-18.541" fill="#a172d0"/>
  <path d="m190.817 267.1 82.882-74.98c4.282-3.876 10.545-3.569 15.614-.805 10.249 5.591 27.826 15.584 43.504 32.571 13.163 14.264 35.033 36.911 37.617 56.082.296 2.195-.469 4.397-2.004 5.99-25.272 26.181-76.678 74.401-82.425 79.302-13.604 11.605-48.88-14.594-68.978-37.953-8.395-9.751-36.714-50.3-26.21-60.207" fill="#fff"/>
  <path d="M460.837 294.782c-7.694-7.572-20.845-7.12-28.956-.168l-28.754 26.187a3.74 3.74 0 0 1-5.237-.452l-20.37-23.812a23.98 23.98 0 0 1-5.666-13.644l-.736-9.078a5.7 5.7 0 0 0-.441-1.784l-3.713-9.56c-.51-1.315-2.283-1.477-3.053-.295-1.043 1.605-1.611 4.02-1.611 6.419 0 4.635 1.089 9.64-.649 9.64-2.317 0-5.069-4.553-6.245-8.829-1.35-4.919-2.022-8.841-4.403-11.019-1.078-.985-2.996-.336-3.291 1.303-.69 3.778.104 10.892.168 14.93.017 1.159-1.02 1.136-1.338-.272-.98-4.363-3.65-17.694-3.65-17.694-.423-1.755-2.845-1.958-3.546-.289-2.005 4.791-1.257 15.214-.892 19.09.035.341-.429.48-.585.179-.968-1.807-2.677-5.365-3.899-9.895-.273-1.008-1.652-1.228-2.161-.319-1.536 2.764-.754 9.362-.342 12.074.04.255-.307.371-.435.15-.666-1.17-1.176-2.276-1.692-3.597-.666-1.709-2.097-.73-2.218.353-.406 3.656-.615 8.882.938 15.579.562 2.416 2.596 9.664 11.709 20.561l48.666 53.88c8.69 11.008 19.825 8.106 26.071 3.476 15.642-11.587 44.517-40.131 44.517-40.131 10.985-9.27 8.685-26.222 1.814-32.983" fill="#a172d0"/>
  <path d="M243.208 311.809c-29.084-31.088-44.246-40.051-51.65-40.879a2.734 2.734 0 0 0-3.047 2.746c.087 15.144 21.419 45.392 28.51 53.642 16.187 18.824 42.241 39.489 58.868 40.735 1.275.093 2.306-1.014 2.161-2.277-1.008-8.887-8.03-25.306-34.842-53.967m-28.157-209.35c2.3 5.539 28.73 22.577 61.858 31.019l.985-2.127c-12.856-11.268-35.08-22.577-51.58-26.835-6.049-1.559-9.345-2.283-11.263-2.057" fill="rgba(235, 136, 55, 0.5)"/>
  <path d="M278.49 52.965c-3.036-2.532-6.645-4.212-10.718-4.994l.22-1.136c4.27.823 8.048 2.584 11.24 5.237z" fill="#000"/>
  <path d="m322.788 245.137-12.265-10.272a9.07 9.07 0 0 0-6.912-2.057c-9.936 1.193-35.914 4.687-44.622 9.473-3.227 1.772-10.214 9.513-10.214 9.513a6.8 6.8 0 0 0-.023 9.42l15.944 17.618a3.09 3.09 0 0 0 4.247.319l12.745-10.44a3.097 3.097 0 0 0 .302-4.502l-2.567-2.746c-1.025-.962-.55-2.682.829-2.978l41.447-8.899c2.062-.458 2.717-3.088 1.089-4.449m-19.101 17.966c-1.993-1.414-4.473-1.536-6.35.017l-38.504 31.801c-2.318 1.912-2.462 6.564-.498 8.841 1.523 1.767 4.594 5.289 6.083 7.097 2.752 3.343 7.271 3.447 9.49 1.425l10.393-9.472a2.333 2.333 0 0 1 3.274.133l2.201 2.364a4.127 4.127 0 0 0 5.788.185l11.477-10.602a5.1 5.1 0 0 0 .029-7.468l-1.06-.997a2.33 2.33 0 0 1 .023-3.418l5.284-4.814c1.969-1.796 2.67-5.823.185-8.169.006 0-5.237-5.087-7.815-6.923" fill="#4235f2"/>
  <path d="M219.75 105.558c7.305 5.753 26.401 16.217 49.986 23.87l.777-1.628c-9.745-8.279-31.94-18.563-50.288-23.209-.574-.145-.945.602-.475.967m-26.28 171.391c3.314-4.194 32.595 23.122 42.519 33.244 16.987 17.317 41.656 50.832 35.711 52.397-3.702.973-26.604-11.854-50.78-39.182-18.395-20.799-29.495-43.869-27.45-46.459" fill="#000"/>
  <path d="m389.101 35.242-.857-5.202c-.713-4.328-4.995-6.449-9.131-4.977-5.423 1.923-12.456 4.206-16.268 7.172a5.67 5.67 0 0 0-2.179 4.936c1.396 16.935 2.995 30.133 3.754 35.961a6.87 6.87 0 0 1-1.865 5.649l-16.917 17.595 17.154 8.771 32.114-29.924z" fill="rgba(161, 114, 208, 0.5)"/>
  <path d="m276.915 133.478 12.271-26.541a13.69 13.69 0 0 1 11.662-7.92l25.428-1.407a40.16 40.16 0 0 0 17.78-5.278 14.28 14.28 0 0 1 14.351.07 7.935 7.935 0 0 0 9.154-.794l9.182-7.799a4.38 4.38 0 0 0 1.536-3.615c-.487-7.38-2.034-31.551-2.231-43.335a4.22 4.22 0 0 1 2.364-3.87c6.112-2.984 15.683-4.438 23.018-3.187 1.813.307 3.233 1.796 3.348 3.633.493 8.04-4.999 16.656-4.999 16.656l4.837 36.366a21.99 21.99 0 0 1-8.91 20.712l-30.55 22.085a78.4 78.4 0 0 1-26.036 12.282l-23.412 6.124z" fill="#a172d0"/>
  <path d="m287.442 109.631 14.223-2.155 11.054 11.744-21.425 20.387-11.332-12.803z" fill="#274D76"/>
  <path d="M322.237 102.984c2.783-10.65-3.593-21.539-14.242-24.322-10.65-2.784-21.539 3.592-24.323 14.241-2.783 10.65 3.593 21.539 14.242 24.323s21.539-3.593 24.323-14.242" fill="#a172d0"/>
  <path d="m251.927 90.634 3.772-5.822a1.914 1.914 0 0 0-.823-2.787l-1.576-.707a1.34 1.34 0 0 1-.214-2.323l16.842-11.674c.851-.591.66-1.9-.325-2.23l-7.711-2.544a3.14 3.14 0 0 0-2.717.365l-16.581 10.979a7.1 7.1 0 0 0-2.399 2.682l-2.329 4.542a4.455 4.455 0 0 0 2.196 6.124l9.495 4.108a1.91 1.91 0 0 0 2.37-.713m19.912-2.572-.857-.533a1.79 1.79 0 0 1-.684-2.26l1.136-2.49a3.08 3.08 0 0 0-1.304-3.97l-3.806-2.12a3.075 3.075 0 0 0-4.195 1.211l-11.5 20.961a3.085 3.085 0 0 0 .979 4.038l4.073 2.741a3.09 3.09 0 0 0 4.421-1.072l3.296-6.008a1.79 1.79 0 0 1 2.497-.666l.452.278a1.984 1.984 0 0 0 2.81-.8l3.401-6.72a1.98 1.98 0 0 0-.719-2.59" fill="#4235f2"/>
  <path d="M337.023 107.934c-5.574-4.977-14.073-4.681-19.293.66l-15.515 15.886a4.82 4.82 0 0 1-4.669 1.292l-23.065-6.054a8.8 8.8 0 0 1-4.165-2.474l-6.622-7.022c-.551-.585-1.541-.481-1.895.238-.365.736-.591 1.941-.214 3.893.834 4.345-1.686 4.334-4.247 2.283-1.321-1.055-3.366-2.7-5.034-4.05-1.269-1.025-3.14-.11-3.146 1.518-.012 1.981.272 4.252 1.413 5.521-2.329 6.987 1.582 15.284 7.775 18.632 7.15 3.865 45.683 15.77 45.683 15.77a10.63 10.63 0 0 0 10.544-2.694l23.041-23.139c5.654-5.666 5.382-14.924-.591-20.26" fill="#a172d0"/>
  <path d="M290.906 84.737c-2.468 1.79-4.392 4.368-5.533 7.438-2.572 6.924-.145 14.363 5.278 18.806 2.92 2.393 7.375 2.961 11.802.226 2.879-1.778 5.057-4.64 6.32-8.035 2.213-5.95.719-12.12-3.232-16.541-3.245-3.621-10.522-4.884-14.635-1.894" fill="#000"/>
  <path d="M146.629 309.15c-2.213-8.436-4.675-19.304-5.973-22.995-.052-.145-.232-.544-.365-.631-1.164-.777-8.001-4.05-15.915-2.729-2.451.411-10.863-.371-14.229 2.184-1.043.788-1.437 2.121-1.529 3.424-.475 7.028-1.646 28.742-1.449 36.071.035 1.315.939 2.497 2.231 2.758 14.258 2.902 30.839 1.564 38.226-4.015a2.96 2.96 0 0 0 1.182-2.625c-.186-1.964-.696-5.793-2.179-11.442" fill="#fff"/>
  <path d="m65.16 252.877-23.556-7.364a2.62 2.62 0 0 1-1.808-2.867l3.638-25.452a3.29 3.29 0 0 0-2.786-3.719l-14.716-2.248c-.69-.098-2.172.417-2.172 2.399 0 .967.266 1.506.758 2.097l2.66 3.204c.498.596.712 1.384.585 2.149l-3.146 19.467 10.77 22.936 26.17 2.798z" fill="rgba(161, 114, 208, 0.5)"/>
  <path d="m18.62 220.039 20.475 32.206a3.9 3.9 0 0 0 2.433 1.709l4.589 1.02a6.03 6.03 0 0 0 4.444-.741l1.772-1.084a14.07 14.07 0 0 1 11.72-1.379l28.088 9.16-8.21 25.602-27.693-6.756a66 66 0 0 1-7.091-2.155c-3.453-1.263-8.505-3.192-11.581-4.704-7.932-3.899-10.533-6.935-11.825-9.357-4.108-7.699-14.258-25.15-15.538-27.212-1.663-2.677-5.319-2.908-7.26-3.413-1.199-.312-2.08-.84-2.566-1.981l-.25-.579a1.58 1.58 0 0 1 .551-1.918l13.453-9.397a3.13 3.13 0 0 1 4.49.979" fill="#a172d0"/>
  <path d="m104.667 278.456 24.784-.018c2.022-.011 4.108.591 5.174 1.814.637.73 1.773 2.305 2.375 3.064.418.533.267 1.223-.336 1.078l-3.006-1.078.532 1.843c.365.996-.544 1.448-1.315 1.06l-2.995-1.414a1.065 1.065 0 0 1-1.553 1.037c-1.378-.718-1.906-1.181-3.812-2.479a2.65 2.65 0 0 0-1.61-.452c-5.11.255-8.714.892-11.831 2.167-2.311.944-2.369 3.348-2.41 4.102-.069 1.268-1.784 5.069-1.784 5.069l-16.135-3.32-2.857-10.741z" fill="rgba(161, 114, 208, 0.5)"/>
  <path d="M95.246 281.318c7.027 0 12.723-5.935 12.723-13.256s-5.696-13.256-12.723-13.256c-7.026 0-12.722 5.935-12.722 13.256s5.696 13.256 12.722 13.256" fill="#a172d0"/>
  <path d="M100.779 299.359s-7.827 13.823-9.003 21.992c-.377 2.63 1.54 5.046 4.183 5.359 2.34.272 5.961.406 11.413-.029-.788-2.462 1.008-24.35 1.779-33.197.104-1.188-1.362-1.825-2.167-.944zm26.72-6.588c1.674 3.488 7.995 16.796 9.345 22.138a1 1 0 0 1-1.031 1.245c-6.182-.411-12.149.493-14.693.956a1 1 0 0 1-1.176-1.066l1.727-21.314a1 1 0 0 1 .62-.846l3.922-1.599a1.004 1.004 0 0 1 1.286.486" fill="#fff"/>
  <path d="M135.39 310.604c-2.862-7.485-8.302-18.678-8.302-18.678l-1.281.521 6.072 23.603c1.686-.018 3.447.087 5.208.255-.081-1.124-.747-3.204-1.697-5.701" fill="#4235f2"/>
  <path d="M137.093 316.305c-.006-.099-4.675-3.888-4.675-3.888a2.53 2.53 0 0 0-2.752-.208l-9.125 5c2.201-.423 9.374-1.599 16.552-.904" fill="#4235f2"/>
  <path d="M90.93 271.955a10.8 10.8 0 0 0 1.327 6.309c.69 1.223 1.987 2.011 3.395 2.011h.023c6.338 0 11.477-5.353 11.477-11.958v-.041c-.012-2.786-2.005-5.156-4.641-5.596a10 10 0 0 0-2.508-.093c-4.763.435-8.615 4.415-9.073 9.368" fill="#000"/>
  <path d="m131.977 294.463-2.734.319c-.22.023-.33-.255-.157-.388l2.295-1.733c.898-.677.359-2.103-.759-2.016-2.486.192-5.69.458-7.978.701-.377.041-.545-.469-.214-.66 1.025-.585 1.564-.869 2.63-1.466 1.524-.857.023-2.062-1.721-1.999-3.262.128-6.512 2.092-8.986 2.092-4.472 0-16.853-.603-16.853-.603a3.08 3.08 0 0 1-2.44-1.344l-10.057-14.883a8.336 8.336 0 0 0-11.796-1.53 8.344 8.344 0 0 0-1.697 11.338l14.727 18.87a7.49 7.49 0 0 0 5.643 2.873l32.067-.486c3.824.005 6.512-3.459 6.854-5.261a9.2 9.2 0 0 0 2.19-2.057c.585-.776-.04-1.883-1.014-1.767" fill="#a172d0"/>
  <path d="M92.517 157.364s2.723 10.232 9.589 24.102c9.733 19.657 14.484 27.531 19.489 35.972 6.095 10.278 24.704 20.7 60.607-1.541 37.2-23.041 31.528-38.22 29.06-43.504-1.46-3.129-13.308-25.272-23.139-42.079a323 323 0 0 0-9.867-15.775 12.22 12.22 0 0 0-8.818-5.365c-9.791-1.107-30.532-.997-51.858 14.455-29.402 21.308-25.063 33.735-25.063 33.735" fill="#fff"/>
  <path d="M212.757 183.644c.979-4.942-1.153-9.994-5.307-12.856-10.533-7.265-31.164-7.578-57.321 8.945-28.742 18.157-29.408 33.522-25.133 42.033 8.378 8.267 26.442 13.186 57.2-5.869 22.044-13.65 29.031-24.542 30.561-32.253" fill="rgba(235, 136, 55, 0.5)"/>
  <path d="M130.378 221.204c-3.574-5.116-3.644-21.141 23.186-38.4 27.044-17.398 50.769-12.45 54.257-3.071 3.487 9.38-15.944 26.558-37.589 37.554-19.582 9.953-35.891 9.589-39.854 3.917m-23.232 101.758c-2.358-.006-4.843.121-7.329.318-5.596.446-6.35 2.208-5.822 2.747.492.504 1.24.776 1.964.857 2.34.272 7.172.429 12.317-.174-1.13-1.245-1.124-1.848-1.13-3.748" fill="#000"/>
  <path d="M146.502 288.467c-1.675-2.068-2.631-1.813-5.69-1.86 1.298 4.484 3.558 13.934 5.817 22.549 2.26 8.609 2.271 12.989 2.271 12.989 2.839-.377 5.128-.8 10.684-1.732 4.536-.765 4.941-4.519 2.595-7.996z" fill="#fff"/>
  <path d="M146.681 323.883c.325-.823-.208-1.646-1.57-2.318-2.705-1.344-8.001-2.398-18.319-1.819-9.513.533-14.339 2.885-16.766 4.959-1.298 1.113-1.211 1.97-.064 2.665 14.298 3.471 29.089 1.536 36.719-3.487" fill="rgba(235, 136, 55, 0.5)"/>
  <path d="M160.175 320.517c1.147-.296 1.326-1.524.73-1.953a8 8 0 0 0-.916-.55c-2.821-1.449-7.329-1.431-11.639-.916.544 3.349.643 4.154.029 5.29 3.511-.243 11.454-1.784 11.796-1.871" fill="#000"/>
  <path d="M126.78 153.975c-1.685-4.241-1.738-8.968.25-12.068.463-.724 1.315-1.906.886-2.647l-3.731-5.412c-.788-1.367-2.845-.509-3.789.759-4.652 6.275-6.39 14.45-2.914 23.175 5.104 12.832 14.582 16.587 24.35 14.2 1.582-.389 2.352-2.179 1.535-3.587l-2.85-4.721c-.626-1.084-1.825-1.68-3.076-1.582-4.218.342-8.389-2.416-10.661-8.117m27.827-15.138c-7.387-11.697-19.125-13.482-26.813-10.562-1.344.51-1.952 2.068-1.234 3.314l4.195 5.683c.498.858 1.483 1.275 2.451 1.09 4.101-.794 9.142.793 12.461 5.811 2.636 3.986 2.631 10.225-1.552 14.234-.916.881-.823 2.393-.186 3.494l2.677 4.617c1.06 1.825 3.43 1.999 5.046.649 7.578-6.326 8.134-20.127 2.955-28.33" fill="#4235f2"/>
  <path d="M320.088 138.02c-.4 0-.805-.104-1.176-.319-2.839-1.651-7.96-4.878-10.365-7.873-.677-.846-.66-2.08.053-2.938l7.525-9.072a2.344 2.344 0 0 1 3.204-.388c2.364 1.755 6.669 4.999 8.957 7.027a2.337 2.337 0 0 1 .336 3.158c-2.63 3.557-5.255 7.404-6.581 9.374a2.37 2.37 0 0 1-1.953 1.031m-2.161-19.895a1.18 1.18 0 0 0-.915.428l-7.526 9.073c-.359.435-.377 1.049-.035 1.472 2.376 2.96 7.816 6.303 10.046 7.601a1.184 1.184 0 0 0 1.576-.359c1.338-1.982 3.969-5.84 6.611-9.421a1.186 1.186 0 0 0-.174-1.599c-2.254-1.998-6.53-5.22-8.882-6.964a1.17 1.17 0 0 0-.701-.231M429.592 344.27c-.145 0-.29-.005-.44-.023a4.44 4.44 0 0 1-3.048-1.639l-12.485-15.498a4.47 4.47 0 0 1 .481-6.112l13.8-12.474a4.4 4.4 0 0 1 3.297-1.141 4.45 4.45 0 0 1 3.111 1.581l13.209 15.741a4.467 4.467 0 0 1-.544 6.281l-14.519 12.224a4.37 4.37 0 0 1-2.862 1.06m-14.71-22.409a3.31 3.31 0 0 0-.359 4.525l12.485 15.497a3.3 3.3 0 0 0 2.254 1.217 3.28 3.28 0 0 0 2.445-.759l14.518-12.224a3.316 3.316 0 0 0 .406-4.653l-13.209-15.741a3.25 3.25 0 0 0-2.306-1.17 3.27 3.27 0 0 0-2.439.846zm-53.492-4.768-.904-.724 6.507-8.164c.382-.48.249-.984-.006-1.297s-.724-.545-1.275-.267l-7.352 3.783c-.962.493-2.051.255-2.723-.585s-.649-1.958.047-2.781l6.541-7.723c.405-.48.272-.996.017-1.315-.261-.318-.73-.562-1.286-.266l-18.951 9.646-.527-1.031 18.945-9.646c.95-.504 2.051-.273 2.723.567.678.846.66 1.964-.035 2.793l-6.541 7.723c-.406.475-.278.99-.023 1.309s.724.562 1.28.278l7.346-3.783a2.15 2.15 0 0 1 2.7.556c.672.817.678 1.929.018 2.758zm31.542 12.013-8.457 22.803 1.087.403 8.456-22.803zm13.267 4.953-1.093.385 9.754 27.713 1.093-.384zm-.404 19.186-1.146.169 2.012 13.624 1.146-.169zm-13.037-5.253-2.083 10.916 1.138.217 2.084-10.915zm-92.734-218.817-1.018.552 10.512 19.37 1.018-.553zm.066 10.293-1.113.32 3.246 11.292 1.114-.32zm-5.24-8.457-1.005 16.969 1.157.069 1.005-16.97zm-30.623 6.58-1.119-.301 2.978-11.135a1.413 1.413 0 0 1 1.541-1.061 1.42 1.42 0 0 1 1.287 1.356l.33 6.668a.26.26 0 0 0 .22.261c.081.018.22.023.307-.145l4.299-8.481 1.031.521-4.293 8.482a1.42 1.42 0 0 1-1.582.753 1.42 1.42 0 0 1-1.135-1.333l-.33-6.668c-.012-.209-.163-.255-.249-.261-.087-.011-.244.006-.296.203zm119.11-58.308-.182 1.145 16.957 2.703.183-1.145zm1.165 5.191-.422 1.079L400 91.77l.422-1.08zm.224 4.474-.878.756 11.258 13.082.878-.756zM367.474 399.57l-.064-.006-33.128-3.789.134-1.153 33.092 3.783c.8-.011 1.234-.562 1.379-1.072.145-.515.047-1.222-.66-1.639l-38.122-17.995c-1.188-.707-1.634-2.034-1.135-3.262s1.749-1.871 3.035-1.558l30.237 6.726c.869.209 1.443-.301 1.674-.805.226-.493.249-1.24-.423-1.762l-25.329-12.519.516-1.037 25.462 12.595c1.194.875 1.275 2.242.829 3.209s-1.541 1.791-2.984 1.449l-30.236-6.727c-.91-.22-1.484.331-1.704.87-.22.533-.191 1.326.603 1.801l38.121 17.995c1.09.649 1.553 1.802 1.234 2.972-.33 1.17-1.321 1.924-2.531 1.924M82.164 290.251q-.182.001-.365-.023a2.54 2.54 0 0 1-1.767-1.13l-3.036-4.652a2.55 2.55 0 0 1 .713-3.505l4.05-2.717a2.55 2.55 0 0 1 3.516.678l2.81 4.113a2.54 2.54 0 0 1-.452 3.372l-3.817 3.256a2.52 2.52 0 0 1-1.652.608m1.014-11.291c-.266 0-.533.075-.77.231l-4.05 2.718a1.395 1.395 0 0 0-.388 1.911l3.036 4.653a1.383 1.383 0 0 0 2.056.295l3.818-3.256a1.38 1.38 0 0 0 .244-1.836l-2.81-4.114a1.35 1.35 0 0 0-1.136-.602m9.969 11.732-6.343 6.647.839.8 6.343-6.648zm-1.932 6.093-1.69 3.417 1.038.514 1.69-3.417zm4.635-6.218-2.364 11.284 1.134.238 2.364-11.284zm13.191 9.11h-.081a1.83 1.83 0 0 1-1.669-1.257l-1.031-3.117 1.101-.365 1.031 3.117a.66.66 0 0 0 .614.464c.11 0 .481-.012.655-.412l1.002-2.346a1.82 1.82 0 0 1 1.356-1.083 1.83 1.83 0 0 1 1.651.521l3.03 3.105a.65.65 0 0 0 .811.122.66.66 0 0 0 .336-.753l-1.408-6.025 1.13-.261 1.408 6.025a1.82 1.82 0 0 1-.904 2.028 1.83 1.83 0 0 1-2.202-.33l-3.03-3.106a.65.65 0 0 0-.608-.191.67.67 0 0 0-.498.4l-1.003 2.346a1.82 1.82 0 0 1-1.691 1.118m-74.686-46.449-8.297 2.847.376 1.096 8.297-2.847zm-2.295 3.694-4.46 3.715.74.89 4.461-3.715zm3.306.224-3.467 8.921 1.08.42 3.467-8.921zM4.287 231.151c-.127 0-.26-.012-.388-.04l-1.002-.221.25-1.129 1.001.22c.186.04.377 0 .528-.105a.65.65 0 0 0 .278-.463l.104-.811a1.85 1.85 0 0 1 .782-1.275 1.84 1.84 0 0 1 1.472-.266l1.993.492c.214.052.434 0 .596-.145a.67.67 0 0 0 .232-.573l-.098-1.112a1.82 1.82 0 0 1 .62-1.547 1.8 1.8 0 0 1 1.616-.4l1.303.307a.66.66 0 0 0 .597-.151.67.67 0 0 0 .226-.573 1.81 1.81 0 0 1 .713-1.634 1.81 1.81 0 0 1 1.767-.249l1.495.573-.418 1.084-1.494-.574a.66.66 0 0 0-.65.093.66.66 0 0 0-.26.602 1.81 1.81 0 0 1-.614 1.553 1.8 1.8 0 0 1-1.622.406l-1.304-.307a.69.69 0 0 0-.596.144.66.66 0 0 0-.226.568l.098 1.113a1.82 1.82 0 0 1-.631 1.552 1.84 1.84 0 0 1-1.634.388l-1.993-.492a.66.66 0 0 0-.539.098.67.67 0 0 0-.29.47l-.104.811c-.07.504-.342.962-.765 1.257-.301.22-.666.336-1.043.336M382.508 42.223h-.047a1.48 1.48 0 0 1-1.332-.903l-.939-2.179a.33.33 0 0 0-.313-.208h-.005a.33.33 0 0 0-.313.214l-1.049 2.619-1.077-.429 1.048-2.619a1.5 1.5 0 0 1 1.373-.944h.018c.602 0 1.141.353 1.379.904l.938 2.178a.342.342 0 0 0 .62.017l.678-1.355c.226-.452.66-.76 1.159-.817a1.47 1.47 0 0 1 1.321.516l1.118 1.303c.121.14.272.122.33.11a.33.33 0 0 0 .255-.237l.678-2.266a1.5 1.5 0 0 1 1.048-1.02 1.47 1.47 0 0 1 1.414.354l2.19 2.051a.32.32 0 0 0 .336.075.33.33 0 0 0 .232-.249l.428-1.854c.122-.515.487-.92.991-1.089a1.48 1.48 0 0 1 1.443.284l1.57 1.338a.33.33 0 0 0 .342.058.34.34 0 0 0 .22-.266l.295-1.837c.087-.544.469-.996.991-1.176a1.5 1.5 0 0 1 1.506.319.34.34 0 0 0 .371.063.33.33 0 0 0 .203-.312v-1.321h1.158v1.32c0 .609-.341 1.13-.898 1.374a1.48 1.48 0 0 1-1.622-.273.32.32 0 0 0-.342-.07.33.33 0 0 0-.226.267L399.703 38a1.49 1.49 0 0 1-.962 1.17 1.47 1.47 0 0 1-1.489-.266l-1.57-1.339a.35.35 0 0 0-.33-.063.35.35 0 0 0-.226.249l-.429 1.854a1.5 1.5 0 0 1-1.025 1.1 1.5 1.5 0 0 1-1.466-.341l-2.19-2.051a.35.35 0 0 0-.324-.081.34.34 0 0 0-.238.231l-.678 2.266a1.5 1.5 0 0 1-1.124 1.037 1.49 1.49 0 0 1-1.448-.493l-1.118-1.303a.33.33 0 0 0-.301-.116.35.35 0 0 0-.267.185l-.678 1.356a1.47 1.47 0 0 1-1.332.828" fill="#000"/>
  <path d="m380.811 33.416-.583 1 5.529 3.226.584-1zm5.208-2.132-.563 1.013 7.187 3.992.563-1.012zm6.57-.711-.496 1.046 5.914 2.806.497-1.046zm-59.807 451.764-1.066-.452 1.773-4.172a3.58 3.58 0 0 1 2.329-2.056 3.58 3.58 0 0 1 3.064.521l1.843 1.298a2.4 2.4 0 0 0 2.184.318 2.43 2.43 0 0 0 1.553-1.57l.318-.99a3.6 3.6 0 0 1 5.672-1.715l1.872 1.489a2.41 2.41 0 0 0 2.242.423 2.41 2.41 0 0 0 1.616-1.611l.481-1.547a3.55 3.55 0 0 1 2.34-2.358 3.57 3.57 0 0 1 3.28.562l2.149 1.628a2.41 2.41 0 0 0 2.242.377 2.42 2.42 0 0 0 1.582-1.634l.805-2.74a3.6 3.6 0 0 1 2.486-2.457 3.6 3.6 0 0 1 3.4.805l1.727 1.571a2.42 2.42 0 0 0 2.364.527 2.43 2.43 0 0 0 1.662-1.762 3.56 3.56 0 0 1 2.486-2.607 3.57 3.57 0 0 1 3.499.846l2.688 2.555-.799.84-2.688-2.555a2.43 2.43 0 0 0-2.376-.573 2.42 2.42 0 0 0-1.686 1.773 3.56 3.56 0 0 1-2.445 2.595 3.57 3.57 0 0 1-3.482-.782l-1.726-1.57a2.42 2.42 0 0 0-2.306-.545 2.44 2.44 0 0 0-1.686 1.663l-.805 2.74a3.608 3.608 0 0 1-5.637 1.854l-2.15-1.628a2.43 2.43 0 0 0-2.224-.382 2.4 2.4 0 0 0-1.588 1.599l-.481 1.547a3.61 3.61 0 0 1-2.381 2.375 3.6 3.6 0 0 1-3.302-.625l-1.871-1.489a2.4 2.4 0 0 0-2.231-.429 2.42 2.42 0 0 0-1.622 1.593l-.319.991a3.57 3.57 0 0 1-2.288 2.317 3.55 3.55 0 0 1-3.221-.475l-1.843-1.298a2.44 2.44 0 0 0-2.08-.353 2.44 2.44 0 0 0-1.581 1.396zm-37.861-28.707h-1.159v-5.557c0-.764-.394-1.448-1.048-1.836a2.12 2.12 0 0 0-2.115-.035l-2.451 1.35a3.25 3.25 0 0 1-3.262-.052 3.26 3.26 0 0 1-1.616-2.833v-1.912c0-.724-.348-1.373-.95-1.779a2.08 2.08 0 0 0-2.005-.191l-3.146 1.315a3.27 3.27 0 0 1-3.093-.295 3.29 3.29 0 0 1-1.472-2.741v-.631c0-.724-.342-1.367-.944-1.773a2.09 2.09 0 0 0-1.999-.203l-3.013 1.234a3.28 3.28 0 0 1-3.082-.312 3.29 3.29 0 0 1-1.46-2.735c0-.73-.347-1.379-.956-1.779a2.1 2.1 0 0 0-2.01-.185l-2.341.991a3.28 3.28 0 0 1-2.786-.105 3.27 3.27 0 0 1-1.709-2.201l-.302-1.321a2.12 2.12 0 0 0-1.118-1.431 2.1 2.1 0 0 0-1.819-.046l-4.16 1.825-.463-1.061 4.159-1.825a3.3 3.3 0 0 1 4.543 2.289l.301 1.321c.139.62.544 1.135 1.106 1.425s1.223.313 1.808.069l2.341-.99a3.28 3.28 0 0 1 3.105.289 3.3 3.3 0 0 1 1.471 2.747c0 .724.342 1.367.945 1.772a2.1 2.1 0 0 0 1.999.203l3.012-1.234a3.28 3.28 0 0 1 3.082.313 3.28 3.28 0 0 1 1.46 2.735v.631c0 .724.348 1.373.951 1.779a2.08 2.08 0 0 0 2.004.191l3.146-1.315a3.287 3.287 0 0 1 4.56 3.036v1.911c0 .765.394 1.449 1.048 1.837.655.388 1.449.4 2.115.035l2.451-1.35a3.25 3.25 0 0 1 3.261.052 3.26 3.26 0 0 1 1.617 2.833v5.545zM425.2 276.011c-5.353 8.69-19.605 13.244-26.546 3.905-7.711-10.383-2.213-32.462 13.835-33.389 3.662-.214 7.312.985 10.197 3.372 7.323 6.066 8.517 16.367 2.514 26.112" fill="#000"/>
  <path d="M406.899 264.505c-1.97 6.089-4.23 12.821-7.063 9.368-1.761-2.15-2.833-7.317-1.575-12.23.99-3.87 3.76-7.584 6.511-9.531 1.426-1.008 2.868-1.24 4.021-.626 2.943 1.559.313 6.188-1.894 13.019m-111.26-169.12c-2.972 3.18-6.314 6.663-7.688 3.036-.851-2.254-.451-6.223 1.692-8.94 1.686-2.143 4.71-3.36 7.3-3.4 1.344-.018 2.509.492 3.262 1.436 1.9 2.405-1.234 4.3-4.566 7.868M101.457 270.043c.04-2.08.121-4.385 1.715-3.54.99.528 2.896 4.705.712 7.26-.411.481-1.019.631-1.57.533-1.396-.244-.904-1.924-.857-4.253" fill="#a9de6e"/>
  <path d="M143.141 324.091c.249-.538-.197-1.066-1.309-1.477-2.219-.817-6.535-1.402-14.907-.823-7.717.533-11.593 2.161-13.534 3.558-1.037.747-.956 1.309-.005 1.732 11.668 1.981 23.643.429 29.755-2.99m202.81-49.616c-.968-4.316-3.627-17.577-3.656-17.71l1.135-.226c.029.133 2.683 13.377 3.65 17.682zm11.743 1.408c-1.193-1.732-2.236-4.038-2.862-6.321q-.329-1.2-.614-2.323c-.979-3.748-1.75-6.715-3.621-8.424l.782-.857c2.126 1.941 2.937 5.052 3.963 8.986q.285 1.113.614 2.306c.597 2.166 1.576 4.345 2.7 5.973zm5.498.267-1.158-.035c.029-.91-.058-2.097-.145-3.355-.087-1.292-.191-2.752-.191-4.165 0-2.578.637-5.093 1.703-6.738l.973.631c-.95 1.466-1.518 3.743-1.518 6.107 0 1.367.093 2.752.186 4.084.092 1.286.179 2.503.15 3.471m37.537 46.082a4.33 4.33 0 0 1-3.291-1.507l-9.646-11.274.88-.753 9.647 11.274a3.18 3.18 0 0 0 4.432.382l28.736-26.169a22.4 22.4 0 0 1 5.278-3.36l.481 1.054a21.2 21.2 0 0 0-4.995 3.175l-28.741 26.175a4.36 4.36 0 0 1-2.781 1.003m1.911 50.398c-4.953 0-10.173-2.138-14.68-7.85l-11.101-12.289.858-.776 11.129 12.317c8.146 10.318 18.719 8.273 25.295 3.401 5.26-3.899 12.583-10.133 21.766-18.534l.782.858c-9.212 8.424-16.569 14.687-21.859 18.609-3.349 2.474-7.659 4.264-12.19 4.264m-72.135-94.701c-.643-1.13-1.176-2.26-1.726-3.674l1.083-.417c.533 1.373 1.025 2.428 1.651 3.517zm6.825-2.028c-.939-1.756-2.7-5.394-3.952-10.017l1.119-.302a47.4 47.4 0 0 0 3.852 9.768zm79.968 17.009a25.51 25.51 0 0 1-22.438-13.354l1.019-.556a24.37 24.37 0 0 0 21.419 12.752zM260.235 118.559c-.921 0-2.051-.498-3.25-1.46-1.321-1.054-3.366-2.705-5.04-4.05l.73-.903c1.674 1.35 3.713 2.995 5.034 4.049 1.234.991 2.433 1.431 2.984 1.095.498-.301.614-1.326.33-2.821-.342-1.785-.255-3.216.267-4.264l1.037.515c-.278.562-.533 1.628-.168 3.529.399 2.085.11 3.441-.869 4.032a2 2 0 0 1-1.055.278m42.397 6.327-.828-.811 15.515-15.886a14.52 14.52 0 0 1 20.092-.69l-.771.864a13.36 13.36 0 0 0-18.487.631zm34.569 2.906-15.742 15.818.821.817 15.742-15.818zM88.062 278.044l-3.534-5.231a7.7 7.7 0 0 0-5.174-2.99 7.73 7.73 0 0 0-5.787 1.588l-.713-.91a8.84 8.84 0 0 1 6.651-1.825 8.88 8.88 0 0 1 5.967 3.465l3.552 5.254zm19.344 28.037-.686 13.493 1.157.058.687-13.493zm34.87-16.544-1.123.284 5.664 22.472 1.123-.284z" fill="#000"/>
  <defs>
    <linearGradient id="a" x1="236.881" y1="10.446" x2="236.881" y2="447.859" gradientUnits="userSpaceOnUse">
      <stop stop-color="a172d0"/>
      <stop offset="1" stop-color="#4235f2"/>
    </linearGradient>
  </defs>
</svg>
